<svg xmlns="http://www.w3.org/2000/svg" version="1.1" width="600px" height="600px" viewBox="0 0 200 200" style="overflow:hidden!important;"><defs id="SvgjsDefs18222"></defs><g id="svga-group-wrapper"><g id="svga-group-backs-single"><path id="SvgjsPath19286" d="M0 0h200v200H0V0z" fill="#e8f0e4" stroke-width="none" opacity="1" stroke="none"></path></g><g id="svga-group-humanwrap-move" transform="matrix(1,0,0,1,0,2)"><g id="svga-group-humanwrap" transform="matrix(0.8499994000000002,0,0,0.8499994000000002,15.382562559972357,18.000070855586216)"><g id="svga-group-hair-back-move" transform="matrix(1,0,0,1,0,0)"><g id="svga-group-hair-back" transform="matrix(1,0,0,1,0,0)"><path id="SvgjsPath18920" d="M54.6 66.5 43 148.8l30.4 34.8h63.5l23.7-33.5-20.2-86.3z" fill="#44362a" stroke-width="none" opacity="1"></path></g></g><g id="svga-group-humanbody-back"><path id="SvgjsPath18760" d="m168.2 200-4.6-14.2-34.9-13.4-10.8-9.7-1.4-50.5h-33l-1.4 50.5-10.8 9.7-34.9 13.4-4.6 14.2-3 20h142.4z" fill="#efc0ad" stroke-width="none" opacity="1"></path><path id="SvgjsPath18761" d="m83.5 112.2-1.4 50.5-10.8 9.7-34.9 13.4-4.6 14.2-3 20H39v-20l1.7-13.3 32.1-12.9 14.1-9.5 2-52.1z" fill="#d08a6d" stroke-width="none" opacity="1"></path></g><g id="svga-group-chinshadow-single"><path id="SvgjsPath18756" d="m117.5 151.4-1.1-39.3H83.5l-1.2 44.3c3.4 1.7 11 5.4 14.9 5.4 5.2 0 16.6-6.3 16.6-6.3 1.3-1.2 2.5-2.6 3.7-4.1z" fill="#c17252" stroke-width="none" opacity="1"></path></g><g id="svga-group-humanbody-front"></g><g id="svga-group-clothes-single"><path id="SvgjsPath18900" d="m170.3 199.6-4.7-15.1-32.8-12-2-4.2-3.4-1.2.3-1.3-1.2-7.3-2.5-2.4.3-3.2-3.5-5.4h-3.4l-1 2.2-6.4 5.1-10 1.3-10-1.3-6.4-5.1-1-2.2h-3.4l-3.5 5.4.3 3.2-2.5 2.4-1.2 7.3.3 1.3-3.4 1.2-2 4.2-32.8 12-4.7 15.1-2.9 20.4h146.4z" fill="#eee4f0" stroke-width="none" opacity="1" stroke="none"></path><path id="SvgjsPath18901" d="m124.3 152.9-3.5 5.9-.4-5.5-3-1.9 2.6 2.6v6.2l-.4.7-3.6 3.5 4.3-2.6 2.9 5.3 1 8.5-.3-9.2-2.7-5.6 2.7-4.7.4-3.2zm-18.9 34H93.8l-13-4.2-1.7-2.4h3.7l2.4.7 1.6 3.3s-.5-1.8-.8-3l5.7 1.7 11.5.2-8-1-.8-7.4.6-3.9 9.2-.4-9.1-.8.3-2.3.6-8.1s-1.6 8.4-1.4 8.7c0 .1-.1.7-.2 1.6h-.3l-5.8-3.2.9-1.8.6-8.3-1.2 8-.9 1.8-1.1-.6-.8-2.5 1-3.9 3-2.7 9.6 1.5 11.7-1.7 8.4-7.9s-.1-.3-.2-.7h-1.8l-1 2.2-6.4 5.1-10 1.4-10-1.4-6.4-5.1-1-2.2h-3.3l-3.6 5.4.3 3.2-2.5 2.4-1.2 7.3.3 1.4-3.4 1.2-2 4.2-32.8 12-4.7 15-3 20.3h8l3.8-24.3 1.8-3.6c2.8 3.2 7.1 8.4 7.1 8.4l4 13.7.3 5.9H54c-.2-3.4-.4-7.2-.4-7.5 0-.5-5.1-13.2-5.1-13.2l-7.9-7.5.3-.6 32.6-9.6 3.9 1.2 14.9 5.2 13 .2 10.7-3 8.3-7.1-8.3 5.9-10.6 2.8zM92.6 171l1.7-.1c-.3 1.8-.7 3.9-.6 4.1.1.3 1.1 5.2 1.5 7.2l-3.1-.4-6.2-2.8c.2-2.7.6-8.8.6-8.8l.6-1.3 5.5 2.1zm-8.5-3.2 2.2.9-.8 1.7-.4 8.4-2.1-.9-1.3-5.6 2.4-4.5zm63.6 44.7c0 .3-.2 4.1-.4 7.5h2.1l.3-5.9 4-13.7s6.6-7.9 8.8-10.3l-9.7 9.2s-5.1 12.7-5.1 13.2zm14.8-22.4.7-.6c-.1 0-.4.3-.7.6zm-47.9-25.3-.8-3.5h.3-.3l-1.1-4.4.8 4.4-11.4-1-7.6-1.7s7.1 2.9 7.6 2.9h1.9l1.3 5.4.2 7.1 1.4 6.7 1.3 4.7-.6-4.5s-1.1-6.1-1.3-6.6c-.2-.4-.6-7.4-.6-7.4l-1.8-5.5c2.8 0 7.7-.1 9.4-.1l.7 4 1.4 4.7-.8 5 1.3 5.4.7 2.7-.3-3.6-1.1-4.4 1-5.8-1.6-4.5z" fill="#dbbfe1" stroke-width="none" opacity="1" stroke="none"></path></g><g id="svga-group-head" transform="matrix(1,0,0,1,0,0)"><g id="svga-group-ears-left-move" transform="matrix(1,0,0,1,0,0)"><g id="svga-group-ears-left" transform="matrix(1,0,0,1,0,0)"><path id="SvgjsPath18710" d="M61.9 93s-5.5-3-7.7-3.9c0 0-3.9 5.4-5.1 7.2 0 0 3.1 14.7 3.9 17.3l5 6.5 5.4-1.7 4.2-14.2L61.9 93z" fill="#efc0ad" stroke-width="none" opacity="1"></path><path id="SvgjsPath18711" d="M59.8 104.7c-.2-.4-6-10-6-10l-2.3 7.9 2.6-2.4 1.6 2.9s-.3 5-.2 5.5c0 .5 2.4 4.3 2.4 4.3l1.9-8.2z" fill="#d08a6d" stroke-width="none" opacity="1"></path><path id="SvgjsPath18712" d="m59.4 98-5.2-8.9c2.2.9 7.7 1.8 7.7 1.8l5.7 13.3-4.2 14.2-5.4 1.7 3.6-3.4L59.4 98z" fill="#e0a48c" stroke-width="none" opacity="1"></path></g></g><g id="svga-group-ears-right-move" transform="matrix(1,0,0,1,0,0)"><g id="svga-group-ears-right" transform="matrix(1,0,0,1,0,0)"><path id="SvgjsPath18713" d="M138.1 93s5.5-3 7.7-3.9c0 0 3.9 5.4 5.1 7.2 0 0-3.1 14.7-3.9 17.3l-5 6.5-5.4-1.7-4.2-14.2 5.7-11.2z" fill="#efc0ad" stroke-width="none" opacity="1"></path><path id="SvgjsPath18714" d="M140.2 104.7c.2-.4 6-10 6-10l2.3 7.9-2.6-2.4-1.6 2.9s.3 5 .2 5.5c0 .5-2.4 4.3-2.4 4.3l-1.9-8.2z" fill="#d08a6d" stroke-width="none" opacity="1"></path><path id="SvgjsPath18715" d="m140.6 98 5.2-8.9c-2.2.9-7.7 1.8-7.7 1.8l-5.7 13.3 4.2 14.2 5.37 1.68-3.57-3.38 2.2-18.7z" fill="#e0a48c" stroke-width="none" opacity="1"></path></g></g><g id="svga-group-faceshape-wrap" transform="matrix(1,0,0,1,0,0)"><g id="svga-group-faceshape-single"><path id="SvgjsPath18742" d="M136.8 61c-6.7-11.2-19-18.9-19-18.9-7-1.5-17.8-2.2-17.8-2.2s-10.8.8-17.8 2.2c0 0-12.4 7.6-19 18.9 0 0-5 14-5.2 23.9 0 0 2.6 23.7 5.8 34 0 0 9.9 19.8 19.6 29.7 0 0 11.5 6.3 16.6 6.3s16.6-6.3 16.6-6.3c9.7-9.9 19.6-29.7 19.6-29.7 3.1-10.3 5.8-34 5.8-34-.3-9.8-5.2-23.9-5.2-23.9z" fill="#efc0ad" stroke-width="none" opacity="1"></path><path id="SvgjsPath18743" d="m85.8 45.6 28.8-.8L136.8 61c-6.7-11.2-19-18.9-19-18.9-7-1.5-17.8-2.2-17.8-2.2s-10.8.8-17.8 2.2c0 0-12.4 7.6-19 18.9 0 0-5 14-5.2 23.9 0 0 2.6 23.7 5.8 34 0 0 9.9 19.8 19.6 29.7 0 0 11.5 6.3 16.6 6.3-4.1-.5-15.3-8.6-15.3-8.6-3.3-4.7-15.2-28-15.2-28-2.5-6.4-6.6-34.9-6.6-34.9.3-3.3 4.4-20.5 4.4-21.3s18.5-16.5 18.5-16.5z" fill="#d08a6d" stroke-width="none" opacity="1"></path></g></g><g id="svga-group-mouth-single-move" transform="matrix(1,0,0,1,0,0)"><g id="svga-group-mouth-single" transform="matrix(1,0,0,1,0,0)"><path id="SvgjsPath18698" d="m90.86 133.49.13 1.07 6.52 3.88 11.26-1.42 5.5-6.18s-14.32-.27-14.52-.27-8.89 2.92-8.89 2.92z" fill="#da7c87" stroke-width="none" opacity="1" transform="translate(0 3)"></path><path id="SvgjsPath18699" d="m87.85 133.25 3.14 1.31 9.34-2.99 13.94-.73 3.94-3.5 1.03.51-2.27-2.56.29 1.97-3.57 2.05-8.83-2.27-3.94 2.34-4.89-1.39-6.94 4.89z" fill="#cb5f6c" stroke-width="none" opacity="1" transform="translate(0 3)"></path><path id="SvgjsPath18700" d="m96.42 133.72 4.19-1.4 6.91-.15-6.6 1.63z" fill="#e99ca5" stroke-width="none" opacity="1" transform="translate(0 3)"></path></g></g><g id="svga-group-eyes-left-move" transform="matrix(1,0,0,1,0,0)"><g id="svga-group-eyes-left" transform="matrix(1,0,0,1,0,0)"><g id="svga-group-eyesback-left"><path id="SvgjsPath18820" d="m91.1 102.6-4.4-3.8-8.3-2.2-8.4.3 7.7 5.7 3.5 1z" fill="#ffffff" stroke-width="none" opacity="1"></path></g><g id="svga-group-eyesiriswrapper-left" transform="matrix(1,0,0,1,0,0)"><g id="svga-group-eyesiriscontrol-left" transform="matrix(1,0,0,1,0,0)"><g id="svga-group-eyesiris-left" transform="matrix(1,0,0,1,0,0)"><path id="SvgjsPath18776" d="m77.8 102.6-.9-5 3.9-3.2 4.7 1.7.8 5-3.8 3.2z" fill="#7b5c33" stroke-width="none" opacity="1"></path><path id="SvgjsPath18777" d="m80.8 94.7 4.5 1.6.8 4.7-3.6 3-4.5-1.6-.8-4.7 3.6-3m-.1-.6-4.1 3.4.9 5.2 5 1.8 4.1-3.4-.9-5.2-5-1.8z" fill="#5c3d14" stroke-width="none" opacity="1"></path><path id="SvgjsPath18778" d="m78.9 100.2.6-2.8 2.7-.8 2.1 1.9-.5 2.7-2.7.9z" fill="#000000" stroke-width="none" opacity="1"></path><path id="SvgjsPath18779" d="M79.9 97h1.6v1.6h-1.6V97zm2.1 4h.9v.9H82v-.9z" fill="#ffffff" stroke-width="none" opacity="1"></path></g></g></g><g id="svga-group-eyesfront-left"><path id="SvgjsPath18828" d="M68 94.5v11.1l7.7 7.9h10.9l7.7-7.9V94.5l-7.7-7.9H75.7L68 94.5zm2 2.4 8.4-.2 8.3 2.2 4.5 3.8-9.9 1-3.5-.9-7.8-5.9z" fill="#efc0ad" stroke-width="none" opacity="1"></path><path id="SvgjsPath18829" d="m92.2 102.7-1.1-.1-4.4-3.8-8.3-2.2-8.4.3 2.7-1.8 8.3-1.7 7.4 2.3z" fill="#e7b29c" stroke-width="none" opacity="1"></path><path id="SvgjsPath18830" d="m72.6 97.1-2.9.2-6-.8 6.3.1 9-.5 8 2.4 5.2 4.2-1 .1-4.6-3.8-8.3-2.2h-.7l-2.5 1.4-2.5.9 2.3-1.2 1.5-1-1.8.1-2.3.9-5.7.9 5.5-1.4z" fill="#0f190c" stroke-width="none" opacity="1"></path></g></g></g><g id="svga-group-eyes-right-move" transform="matrix(1,0,0,1,0,0)"><g id="svga-group-eyes-right" transform="matrix(1,0,0,1,0,0)"><g id="svga-group-eyesback-right"><path id="SvgjsPath18821" d="m108.9 102.6 4.4-3.8 8.3-2.2 8.4.3-7.7 5.7-3.5 1z" fill="#ffffff" stroke-width="none" opacity="1"></path></g><g id="svga-group-eyesiriswrapper-right" transform="matrix(1,0,0,1,0,0)"><g id="svga-group-eyesiriscontrol-right" transform="matrix(1,0,0,1,0,0)"><g id="svga-group-eyesiris-right" transform="matrix(1,0,0,1,0,0)"><path id="SvgjsPath18780" d="m114.5 102.6-.8-5 3.8-3.2 4.7 1.7.9 5-3.9 3.2z" fill="#7b5c33" stroke-width="none" opacity="1"></path><path id="SvgjsPath18781" d="m117.5 94.7 4.5 1.6.8 4.7-3.6 3-4.5-1.6-.8-4.7 3.6-3m-.1-.6-4.1 3.4.9 5.2 5 1.8 4.1-3.4-.9-5.2-5-1.8z" fill="#5c3d14" stroke-width="none" opacity="1"></path><path id="SvgjsPath18782" d="m115.7 100.2.5-2.8 2.7-.8 2.2 1.9-.6 2.7-2.7.9z" fill="#000000" stroke-width="none" opacity="1"></path><path id="SvgjsPath18783" d="M116.6 97h1.6v1.6h-1.6V97zm2.1 4h.9v.9h-.9v-.9z" fill="#ffffff" stroke-width="none" opacity="1"></path></g></g></g><g id="svga-group-eyesfront-right"><path id="SvgjsPath18831" d="M124.3 86.6h-10.9l-7.7 7.9v11.1l7.7 7.9h10.9l7.7-7.9V94.5l-7.7-7.9zm-2 16-3.5.9-9.9-1 4.5-3.8 8.3-2.2 8.4.2-7.8 5.9z" fill="#efc0ad" stroke-width="none" opacity="1"></path><path id="SvgjsPath18834" d="m107.8 102.7 1.1-.1 4.4-3.8 8.3-2.2 8.4.3-2.7-1.8-8.3-1.7-7.4 2.3z" fill="#e7b29c" stroke-width="none" opacity="1"></path><path id="SvgjsPath18835" d="m127.4 97.1 2.9.2 6-.8-6.3.1-9-.5-8 2.4-5.2 4.2 1 .1 4.6-3.8 8.3-2.2h.7l2.5 1.4 2.5.9-2.3-1.2-1.5-1 1.8.1 2.3.9 5.7.9-5.5-1.4z" fill="#0f190c" stroke-width="none" opacity="1"></path></g></g></g><g id="svga-group-facehighlight-single"></g><g id="svga-group-eyebrows-left-move" transform="matrix(1,0,0,1,0,0)"><g id="svga-group-eyebrows-left-rotate" transform="matrix(1,1.7453292519943295e-9,-1.7453292519943295e-9,1,1.5158184396568686e-7,-1.3953906830010965e-7)"><g id="svga-group-eyebrows-left" transform="matrix(1,0,0,1,0,0)"><path id="SvgjsPath18878" d="m92.2 87.2-1.7 3.5-14.6-4.1-8.2 2 5.9-5 3-.6z" fill="#2a232b" stroke-width="none" opacity="1"></path><path id="SvgjsPath18879" d="m85.7 85.5 1.4.4.5 2.6-1.9-3zM76.6 83l3 3.6-4.3-3.4 1.3-.2zm6.4 1.7 1 3.1-2.6-3.5 1.6.4zm-12 1.1h1.9l-2.6.6.7-.6zm13.9-.6.2 1.1-1.2-1.3 1 .2zm-11.3-1.6 2.6 1.4-3.2-.8.6-.6zm15.7 2.8.5 3.1-2.3-3.5 1.8.4z" fill="#3a353a" stroke-width="none" opacity="1"></path></g></g></g><g id="svga-group-eyebrows-right-move" transform="matrix(1,0,0,1,0,0)"><g id="svga-group-eyebrows-right-rotate" transform="matrix(1,1.7453292519943295e-9,-1.7453292519943295e-9,1,1.5158184396568686e-7,-2.0952678880803433e-7)"><g id="svga-group-eyebrows-right" transform="matrix(1,0,0,1,0,0)"><path id="SvgjsPath18880" d="m107.8 87.2 1.7 3.5 14.6-4.1 8.2 2-5.9-5-3-.6z" fill="#2a232b" stroke-width="none" opacity="1"></path><path id="SvgjsPath18881" d="m114.3 85.5-1.4.4-.5 2.6 1.9-3zm9.1-2.5-3 3.6 4.3-3.4-1.3-.2zm-6.4 1.7-1 3.1 2.6-3.5-1.6.4zm12 1.1h-1.9l2.6.6-.7-.6zm-13.9-.6-.2 1.1 1.1-1.4-.9.3zm11.3-1.6-2.6 1.4 3.2-.8-.6-.6zm-15.7 2.8-.5 3.1 2.3-3.5-1.8.4z" fill="#3a353a" stroke-width="none" opacity="1"></path></g></g></g><g id="svga-group-nose-single-move" transform="matrix(1,0,0,1,0,0)"><g id="svga-group-nose-single" transform="matrix(1,0,0,1,0,0)"><path id="SvgjsPath18866" d="m105.55 110.57 3.31 6.99-1.46 2.7-2.53-.2.19-.4 2.63-.9-3.21.2-2.53 3.5H98.06l-2.52-3.5-3.21-.2 2.62.9.2.4-2.53.2-1.46-2.7 3.31-6.99-4.09 7.09 1.95 3.5 3.69-.5 1.85 2.5h4.28l1.84-2.5 3.7.5 1.94-3.5z" fill="#d08a6d" stroke-width="none" opacity="1" transform="translate(0 2)"></path><path id="SvgjsPath18867" d="m93.56 113.36 2.55 4.19 6.9.11-6.96.45z" fill="#d08a6d" stroke-width="none" opacity="1" transform="translate(0 2)"></path><path id="SvgjsPath18868" d="m95.6 111.94 1.93 4.42 5.56.17 1.51-4.81z" fill="#f7cfbf" stroke-width="none" opacity="1" transform="translate(0 2)"></path></g></g><g id="svga-group-hair-front" transform="matrix(1,0,0,1,0,0)"><path id="SvgjsPath18917" d="m80.6 60.6-13.1 5-4.4 13.2 4.1 8.8-2 10.4-8.2 9.2 3.6 10.9 4.9 4.1-.6 8-11.8 10.7 2.5 14 11.8 10.3.4 8.2-6.5 8.2.7 4.7 5.8 3.6-9.3-.8-12.9-6.7-4.6-7.9-10.4-4.3-3.9-9.3 1.8-10-5-14.6 5.7-11.4 1.1-12.9-7.2-10.7 6.8-17.1 10-5.7 2.2-6.4-6.8-10.4L46 47.1l12.5-3.2 9.6 1.7V32.4l12.1-5.7 7.2 3.2 6.4-2.8 3.6-7.2 13.5.7 6.8 4.7 10.7 2.8 6.1 13.6 7.1 5.4 14.7 2.5 8.6 10.3-3.3 8.6 4.3 10.3-2.8 13.3 5.7 10.7 6.8 2.5 3.2 9.9-3.9 11.1 1.7 5 5.4 5.7-5 9.3 1.1 7.9-7.2 10.3 2.5 10.4-7.8 7.8-8.2-2.8-5.8 5.7H142l-5.3 5.7v6.1l-5-7.2-.4-7.5-6.1-5.3 10.4-16.5-5-10 1.4-11 10.4-4.7-.4-5-8.2-2.8-2.1-13.9 5.7-12.9-2.2-17.8-17.1-4-6.1-11 2.2-7.9-10.4-8.6-18.6 2.9z" fill="#4c3e32" stroke-width="none" opacity="1"></path><path id="SvgjsPath18918" d="M130.9 79.5 120.6 77l-4.7-10 4.4-12.2-4.7-8.7-18.4-2.5-13.4 8.1-3.7 5.3h-9.4l-11.2 3.7-4.4 14.7 9.4 10.9-.9 10.6L52 107.2s4.4 10.6 4.7 11.5 8.8 3.4 8.8 3.4l-4.8-4-3.7-10.9 8.2-9.2 2-10.5-4.1-8.7 4.3-13.2 13.2-5 4.6-6.4 18.6-2.9 10.3 8.6-2.1 7.8 6.1 11.1 17.1 3.9 2.1 17.8-5.7 12.8 2.1 13.9.6-12.1 7.8-10.9 8.1-17.2-5.6-8.7-13.7 1.2zM75.7 53.3 85 36.5l22.4-10.9 13.1 9.3 3.1 16.8 15.9.6 4.4 6.9-4.1 8.7 4.4 3.1 13.4-3.1 4 6.6V87l2.2-12.8-3.8-8.4-13.1 1.9-2.5-2.8 2.8-9-5.8-8.7-13.8-.3-5-16.2-14.3-8.7-25.4 12.6-7.2 18.7zm-5.9-1.6-19.3 4.4-6.9 8.1 6.2 18.4-1.6 5.3-15 12.8-.9 10.9 5 8.7L25.8 135l6.9 16.8-1.6 9.4 8.4 10.3 6.9.9 4 10.6 10.6 4.7-9-7.5-3.1-12.8-7.5-8.7-3.1-10-5.6-14 12.5-16.2s-3.7-7.2-3.7-8.1.9-10.3.9-10.3L58 89.5l-.3-6.9-6.5-13.7 5-10.9 13.6-6.3zm4.8 1.3-3.4-5.7.1-13.7L80 28l-11.9 4.5v13.2l2.2 3.8 4.3 3.5zM46 47.1l-5.8 15.2 4.6 10.9-4.8 5.3 2.1-6.4-6.8-10.4L46 47.1zm117.1 45-7.9 19.2-7.2 9 4.5 16.4 12.5 11.1-1.6 11.9-13.5 5.3-5.8 12.5 7.6 8.1-2.8-7.6 5.3-9.5 16.8-4 7.1-10.3-1.1-7.9-18.9-10.9-4-13.5 7.1-10.1 1.9-19.7zm-20.4 46.7-8.5 10.6 4.8 14.8-7.7 18.5.4 7.5 2.9-8.8 10.9-15.6-8.8-16.9 6-10.1zm36.1-23.6-8.5 11.9 5 6.9 6.7 3-5.4-5.7-1.8-5 4-11.1z" fill="#44362a" stroke-width="none" opacity="1"></path><path id="SvgjsPath18919" d="m79.9 54.3 3.3-5.7L97.5 38l18.8 5.3 6.5 11.9-2 11.8 4.5 8.6 20.4-.4 6.1 12.3-4.5 22.9-10.6 6.5-.4 7.8 10.2 5.7 2 9-3.7 9.8 3.7 9.8-.8-9.8 4.5-11-2.4-9.8-9-5.3v-4.9l11-7.4 6.1-24.5-9.8-13.5-21.7.8-2.4-6.1-.3-15.7-5-12.5-22.9-6.1-14.6 13.4-1.3 7.7zm85 47-.8 14.7-4.9 7.3 1.6 12.3 15.9 9-12.7-10.2-2-10.2 5.3-8.2-2.4-14.7zM71.4 54.7 58.7 58l-7.6 10.8L58 89.4l-14 14.7 2.5 13.5 6.1 6.1.8 7.4-10.6 9 5.3 23.3s9.8 5.3 10.2 6.5 1.2 7.8 1.2 7.8l-2 4.1 2.5 4.1-.4-4.1 3.3-6.1-2-9-9.8-6.9-5.3-18.8 11.8-9.4-.8-10.2-8.2-6.1v-11.4l14.7-15.1L55 69.4l6.1-9.8 10.3-4.9zM67.3 49l-9.8-2-11 2.9-6.3 12.4 3 8.4-.4-9.4 6.1-9 9.4-2.5 9-.8zm-29.9 79.7-6.1 7.4 4.1 19.2 8.2 12.3-5.7-13.9-4.1-17.6 3.6-7.4zm90.8-73.5 4.9 12.3 6.9.5-5.3-3.4-6.5-9.4zm30.6 8.5-6.9-11.8-9.8-3.3 8.2 5.3 8.5 9.8z" fill="#54463b" stroke-width="none" opacity="1"></path></g><g id="svga-group-glasses-single-move" transform="matrix(1,0,0,1,0,0)"><g id="svga-group-glasses-single" transform="matrix(1,0,0,1,0,0)"></g></g></g></g></g><rect id="svga-credit-rect" width="200" height="15" x="0" y="185" fill="#ecf0f1" opacity="0.5" style="display: none;"></rect><text id="svga-credit-text" font-family="Avenir Next, Roboto, Helvetica, Arial, sans-serif" font-size="10px" text-anchor="start" font-weight="400" size="10px" anchor="start" weight="400" fill="#333333" x="33.40447998046875" y="182.60824704170227" style="display: none;"><tspan id="SvgjsTspan18270" dy="13" x="33.40447998046875">Created on AvatarMaker.com</tspan></text></g></svg>